<mxfile host="app.diagrams.net" modified="2021-02-20T07:10:11.947Z" agent="5.0 (X11; Linux x86_64) AppleWebKit/537.36 (KHTML, like Gecko) Chrome/88.0.4324.150 Safari/537.36" etag="CKr_GfIygmTxjL7T7wfi" version="14.3.2" type="github">
  <diagram id="5XR9a9AICjMdOfCKLJhp" name="Page-1">
    <mxGraphModel dx="1422" dy="801" grid="1" gridSize="10" guides="1" tooltips="1" connect="1" arrows="1" fold="1" page="1" pageScale="1" pageWidth="850" pageHeight="1100" math="0" shadow="0">
      <root>
        <mxCell id="0" />
        <mxCell id="1" parent="0" />
        <mxCell id="17uhVnuxEVi2bJD-dLvO-13" value="" style="rounded=0;whiteSpace=wrap;html=1;" vertex="1" parent="1">
          <mxGeometry x="170" y="30" width="880" height="660" as="geometry" />
        </mxCell>
        <mxCell id="17uhVnuxEVi2bJD-dLvO-1" value="&lt;font style=&quot;font-size: 14px&quot;&gt;База данных&lt;/font&gt;" style="shape=cylinder3;whiteSpace=wrap;html=1;boundedLbl=1;backgroundOutline=1;size=15;" vertex="1" parent="1">
          <mxGeometry x="820" y="530" width="120" height="140" as="geometry" />
        </mxCell>
        <mxCell id="17uhVnuxEVi2bJD-dLvO-2" value="&lt;font style=&quot;font-size: 14px&quot;&gt;Модуль связи с базой данных&lt;/font&gt;" style="rounded=0;whiteSpace=wrap;html=1;" vertex="1" parent="1">
          <mxGeometry x="780" y="300" width="200" height="130" as="geometry" />
        </mxCell>
        <mxCell id="17uhVnuxEVi2bJD-dLvO-3" value="&lt;span style=&quot;font-weight: normal&quot;&gt;&lt;font style=&quot;font-size: 14px&quot;&gt;Модуль аутентификации&lt;/font&gt;&lt;/span&gt;" style="rounded=0;whiteSpace=wrap;html=1;fontStyle=1" vertex="1" parent="1">
          <mxGeometry x="225" y="310" width="200" height="130" as="geometry" />
        </mxCell>
        <mxCell id="17uhVnuxEVi2bJD-dLvO-4" value="&lt;font style=&quot;font-size: 14px&quot;&gt;Модуль бизнес логики приложения&lt;/font&gt;" style="rounded=0;whiteSpace=wrap;html=1;" vertex="1" parent="1">
          <mxGeometry x="500" y="300" width="200" height="130" as="geometry" />
        </mxCell>
        <mxCell id="17uhVnuxEVi2bJD-dLvO-5" value="&lt;font style=&quot;font-size: 14px&quot;&gt;Модуль создания запросов/ответов&lt;/font&gt;" style="rounded=0;whiteSpace=wrap;html=1;" vertex="1" parent="1">
          <mxGeometry x="500" y="50" width="200" height="130" as="geometry" />
        </mxCell>
        <mxCell id="17uhVnuxEVi2bJD-dLvO-7" value="" style="endArrow=none;html=1;entryX=0.5;entryY=1;entryDx=0;entryDy=0;exitX=0.5;exitY=0;exitDx=0;exitDy=0;" edge="1" parent="1" source="17uhVnuxEVi2bJD-dLvO-3" target="17uhVnuxEVi2bJD-dLvO-5">
          <mxGeometry width="50" height="50" relative="1" as="geometry">
            <mxPoint x="530" y="380" as="sourcePoint" />
            <mxPoint x="580" y="330" as="targetPoint" />
          </mxGeometry>
        </mxCell>
        <mxCell id="17uhVnuxEVi2bJD-dLvO-8" value="" style="endArrow=none;html=1;exitX=0.5;exitY=0;exitDx=0;exitDy=0;" edge="1" parent="1" source="17uhVnuxEVi2bJD-dLvO-4">
          <mxGeometry width="50" height="50" relative="1" as="geometry">
            <mxPoint x="335" y="320" as="sourcePoint" />
            <mxPoint x="600" y="180" as="targetPoint" />
          </mxGeometry>
        </mxCell>
        <mxCell id="17uhVnuxEVi2bJD-dLvO-9" value="" style="endArrow=none;html=1;exitX=0.5;exitY=0;exitDx=0;exitDy=0;" edge="1" parent="1" source="17uhVnuxEVi2bJD-dLvO-2">
          <mxGeometry width="50" height="50" relative="1" as="geometry">
            <mxPoint x="610" y="310" as="sourcePoint" />
            <mxPoint x="600" y="180" as="targetPoint" />
          </mxGeometry>
        </mxCell>
        <mxCell id="17uhVnuxEVi2bJD-dLvO-10" value="" style="endArrow=none;html=1;entryX=1;entryY=0.5;entryDx=0;entryDy=0;" edge="1" parent="1" source="17uhVnuxEVi2bJD-dLvO-2" target="17uhVnuxEVi2bJD-dLvO-4">
          <mxGeometry width="50" height="50" relative="1" as="geometry">
            <mxPoint x="890" y="310" as="sourcePoint" />
            <mxPoint x="610" y="190" as="targetPoint" />
          </mxGeometry>
        </mxCell>
        <mxCell id="17uhVnuxEVi2bJD-dLvO-11" value="" style="endArrow=none;html=1;exitX=0.5;exitY=0;exitDx=0;exitDy=0;exitPerimeter=0;entryX=0.5;entryY=1;entryDx=0;entryDy=0;" edge="1" parent="1" source="17uhVnuxEVi2bJD-dLvO-1" target="17uhVnuxEVi2bJD-dLvO-2">
          <mxGeometry width="50" height="50" relative="1" as="geometry">
            <mxPoint x="890" y="310" as="sourcePoint" />
            <mxPoint x="870" y="470" as="targetPoint" />
          </mxGeometry>
        </mxCell>
      </root>
    </mxGraphModel>
  </diagram>
</mxfile>
